<svg width="279" height="45" viewBox="0 0 279 45" fill="none" xmlns="http://www.w3.org/2000/svg">
<path d="M29.0114 5.09091V40H24.1705L6.42614 14.3977H6.10227V40H0.835227V5.09091H5.71023L23.4716 30.7273H23.7955V5.09091H29.0114ZM60.3196 16.1193C59.9901 15.0852 59.5469 14.1591 58.9901 13.3409C58.4446 12.5114 57.7912 11.8068 57.0298 11.2273C56.2685 10.6364 55.3991 10.1875 54.4219 9.88068C53.456 9.57386 52.3935 9.42045 51.2344 9.42045C49.2685 9.42045 47.4957 9.92614 45.9162 10.9375C44.3366 11.9489 43.0866 13.4318 42.1662 15.3864C41.2571 17.3295 40.8026 19.7102 40.8026 22.5284C40.8026 25.358 41.2628 27.75 42.1832 29.7045C43.1037 31.6591 44.3651 33.142 45.9673 34.1534C47.5696 35.1648 49.3935 35.6705 51.4389 35.6705C53.3366 35.6705 54.9901 35.2841 56.3991 34.5114C57.8196 33.7386 58.9162 32.6477 59.6889 31.2386C60.473 29.8182 60.8651 28.1477 60.8651 26.2273L62.2287 26.483H52.2401V22.1364H65.9616V26.108C65.9616 29.0398 65.3366 31.5852 64.0866 33.7443C62.848 35.892 61.1321 37.5511 58.9389 38.7216C56.7571 39.892 54.2571 40.4773 51.4389 40.4773C48.2798 40.4773 45.5071 39.75 43.1207 38.2955C40.7457 36.8409 38.8935 34.7784 37.5639 32.108C36.2344 29.4261 35.5696 26.2443 35.5696 22.5625C35.5696 19.7784 35.956 17.2784 36.7287 15.0625C37.5014 12.8466 38.5866 10.9659 39.9844 9.42045C41.3935 7.86364 43.0469 6.67614 44.9446 5.85795C46.8537 5.02841 48.9389 4.61364 51.2003 4.61364C53.0866 4.61364 54.8423 4.89204 56.4673 5.44886C58.1037 6.00568 59.5582 6.79545 60.831 7.81818C62.1151 8.84091 63.1776 10.0568 64.0185 11.4659C64.8594 12.8636 65.4276 14.4148 65.723 16.1193H60.3196ZM84.5199 9.625V5.09091H111.537V9.625H100.645V40H95.3949V9.625H84.5199ZM114.379 40V13.8182H119.305V17.9773H119.578C120.055 16.5682 120.896 15.4602 122.101 14.6534C123.317 13.8352 124.692 13.4261 126.226 13.4261C126.544 13.4261 126.919 13.4375 127.351 13.4602C127.794 13.483 128.141 13.5114 128.391 13.5455V18.4205C128.186 18.3636 127.822 18.3011 127.3 18.233C126.777 18.1534 126.254 18.1136 125.732 18.1136C124.527 18.1136 123.453 18.3693 122.51 18.8807C121.578 19.3807 120.839 20.0795 120.294 20.9773C119.749 21.8636 119.476 22.875 119.476 24.0114V40H114.379ZM140.186 40.5795C138.527 40.5795 137.027 40.2727 135.686 39.6591C134.345 39.0341 133.283 38.1307 132.499 36.9489C131.726 35.767 131.339 34.3182 131.339 32.6023C131.339 31.125 131.624 29.9091 132.192 28.9545C132.76 28 133.527 27.2443 134.493 26.6875C135.459 26.1307 136.538 25.7102 137.732 25.4261C138.925 25.142 140.141 24.9261 141.379 24.7784C142.947 24.5966 144.22 24.4489 145.197 24.3352C146.175 24.2102 146.885 24.0114 147.328 23.7386C147.771 23.4659 147.993 23.0227 147.993 22.4091V22.2898C147.993 20.8011 147.572 19.6477 146.732 18.8295C145.902 18.0114 144.663 17.6023 143.016 17.6023C141.3 17.6023 139.947 17.983 138.959 18.7443C137.982 19.4943 137.305 20.3295 136.93 21.25L132.141 20.1591C132.709 18.5682 133.538 17.2841 134.629 16.3068C135.732 15.3182 136.999 14.6023 138.43 14.1591C139.862 13.7045 141.368 13.4773 142.947 13.4773C143.993 13.4773 145.101 13.6023 146.271 13.8523C147.453 14.0909 148.555 14.5341 149.578 15.1818C150.612 15.8295 151.459 16.7557 152.118 17.9602C152.777 19.1534 153.107 20.7045 153.107 22.6136V40H148.129V36.4205H147.925C147.595 37.0795 147.101 37.7273 146.442 38.3636C145.783 39 144.936 39.5284 143.902 39.9489C142.868 40.3693 141.629 40.5795 140.186 40.5795ZM141.294 36.4886C142.703 36.4886 143.908 36.2102 144.908 35.6534C145.919 35.0966 146.686 34.3693 147.209 33.4716C147.743 32.5625 148.01 31.5909 148.01 30.5568V27.1818C147.828 27.3636 147.476 27.5341 146.953 27.6932C146.442 27.8409 145.857 27.9716 145.197 28.0852C144.538 28.1875 143.896 28.2841 143.271 28.375C142.646 28.4545 142.124 28.5227 141.703 28.5795C140.714 28.7045 139.811 28.9148 138.993 29.2102C138.186 29.5057 137.538 29.9318 137.05 30.4886C136.572 31.0341 136.334 31.7614 136.334 32.6705C136.334 33.9318 136.8 34.8864 137.732 35.5341C138.663 36.1705 139.851 36.4886 141.294 36.4886ZM164.991 24.4545V40H159.895V13.8182H164.787V18.0795H165.111C165.713 16.6932 166.656 15.5795 167.94 14.7386C169.236 13.8977 170.866 13.4773 172.832 13.4773C174.616 13.4773 176.179 13.8523 177.52 14.6023C178.861 15.3409 179.901 16.4432 180.639 17.9091C181.378 19.375 181.747 21.1875 181.747 23.3466V40H176.651V23.9602C176.651 22.0625 176.156 20.5795 175.168 19.5114C174.179 18.4318 172.821 17.892 171.094 17.892C169.912 17.892 168.861 18.1477 167.94 18.6591C167.031 19.1705 166.31 19.9205 165.776 20.9091C165.253 21.8864 164.991 23.0682 164.991 24.4545ZM231.933 13.8182V17.9091H217.138V13.8182H231.933ZM221.195 40V10.7841C221.195 9.14773 221.553 7.78977 222.268 6.71023C222.984 5.61932 223.933 4.80682 225.115 4.27273C226.297 3.72727 227.581 3.45454 228.967 3.45454C229.99 3.45454 230.865 3.53977 231.592 3.71023C232.32 3.86932 232.859 4.01704 233.212 4.15341L232.018 8.27841C231.78 8.21023 231.473 8.13068 231.098 8.03977C230.723 7.9375 230.268 7.88636 229.734 7.88636C228.496 7.88636 227.609 8.19318 227.075 8.80682C226.553 9.42045 226.291 10.3068 226.291 11.4659V40H221.195ZM247.445 40.5284C244.865 40.5284 242.643 39.9773 240.78 38.875C238.928 37.7614 237.496 36.1989 236.484 34.1875C235.484 32.1648 234.984 29.7955 234.984 27.0795C234.984 24.3977 235.484 22.0341 236.484 19.9886C237.496 17.9432 238.905 16.3466 240.712 15.1989C242.53 14.0511 244.655 13.4773 247.087 13.4773C248.564 13.4773 249.996 13.7216 251.382 14.2102C252.768 14.6989 254.013 15.4659 255.115 16.5114C256.217 17.5568 257.087 18.9148 257.723 20.5852C258.359 22.2443 258.678 24.2614 258.678 26.6364V28.4432H237.865V24.625H253.683C253.683 23.2841 253.411 22.0966 252.865 21.0625C252.32 20.017 251.553 19.1932 250.564 18.5909C249.587 17.9886 248.439 17.6875 247.121 17.6875C245.689 17.6875 244.439 18.0398 243.371 18.7443C242.314 19.4375 241.496 20.3466 240.916 21.4716C240.348 22.5852 240.064 23.7955 240.064 25.1023V28.0852C240.064 29.8352 240.371 31.3239 240.984 32.5511C241.609 33.7784 242.479 34.7159 243.592 35.3636C244.706 36 246.007 36.3182 247.496 36.3182C248.462 36.3182 249.342 36.1818 250.138 35.9091C250.933 35.625 251.621 35.2045 252.2 34.6477C252.78 34.0909 253.223 33.4034 253.53 32.5852L258.354 33.4545C257.967 34.875 257.274 36.1193 256.274 37.1875C255.286 38.2443 254.041 39.0682 252.541 39.6591C251.053 40.2386 249.354 40.5284 247.445 40.5284ZM264.332 40V13.8182H269.259V17.9773H269.531C270.009 16.5682 270.849 15.4602 272.054 14.6534C273.27 13.8352 274.645 13.4261 276.179 13.4261C276.497 13.4261 276.872 13.4375 277.304 13.4602C277.747 13.483 278.094 13.5114 278.344 13.5455V18.4205C278.139 18.3636 277.776 18.3011 277.253 18.233C276.73 18.1534 276.207 18.1136 275.685 18.1136C274.48 18.1136 273.406 18.3693 272.463 18.8807C271.531 19.3807 270.793 20.0795 270.247 20.9773C269.702 21.8636 269.429 22.875 269.429 24.0114V40H264.332Z" fill="white"/>
<path d="M75.5966 40.3239C74.6648 40.3239 73.8636 39.9943 73.1932 39.3352C72.5227 38.6648 72.1875 37.858 72.1875 36.9148C72.1875 35.983 72.5227 35.1875 73.1932 34.5284C73.8636 33.858 74.6648 33.5227 75.5966 33.5227C76.5284 33.5227 77.3295 33.858 78 34.5284C78.6705 35.1875 79.0057 35.983 79.0057 36.9148C79.0057 37.5398 78.8466 38.1136 78.5284 38.6364C78.2216 39.1477 77.8125 39.5568 77.3011 39.8636C76.7898 40.1705 76.2216 40.3239 75.5966 40.3239ZM199.287 44.3636V0.72727H202.082V44.3636H199.287ZM208.031 14.2614C207.849 12.6477 207.099 11.3977 205.781 10.5114C204.463 9.61364 202.804 9.16477 200.804 9.16477C199.372 9.16477 198.134 9.39205 197.088 9.84659C196.043 10.2898 195.23 10.9034 194.651 11.6875C194.082 12.4602 193.798 13.3409 193.798 14.3295C193.798 15.1591 193.991 15.875 194.378 16.4773C194.776 17.0795 195.293 17.5852 195.929 17.9943C196.577 18.392 197.27 18.7273 198.009 19C198.747 19.2614 199.457 19.4773 200.139 19.6477L203.548 20.5341C204.662 20.8068 205.804 21.1761 206.974 21.642C208.145 22.108 209.23 22.7216 210.23 23.483C211.23 24.2443 212.037 25.1875 212.651 26.3125C213.276 27.4375 213.588 28.7841 213.588 30.3523C213.588 32.3295 213.077 34.0852 212.054 35.6193C211.043 37.1534 209.571 38.3636 207.639 39.25C205.719 40.1364 203.395 40.5795 200.668 40.5795C198.054 40.5795 195.793 40.1648 193.884 39.3352C191.974 38.5057 190.48 37.3295 189.401 35.8068C188.321 34.2727 187.724 32.4545 187.611 30.3523H192.895C192.997 31.6136 193.406 32.6648 194.122 33.5057C194.849 34.3352 195.776 34.9545 196.901 35.3636C198.037 35.7614 199.281 35.9602 200.634 35.9602C202.122 35.9602 203.446 35.7273 204.605 35.2614C205.776 34.7841 206.696 34.125 207.366 33.2841C208.037 32.4318 208.372 31.4375 208.372 30.3011C208.372 29.267 208.077 28.4205 207.486 27.7614C206.906 27.1023 206.116 26.5568 205.116 26.125C204.128 25.6932 203.009 25.3125 201.759 24.983L197.634 23.858C194.838 23.0966 192.622 21.9773 190.986 20.5C189.361 19.0227 188.548 17.0682 188.548 14.6364C188.548 12.625 189.094 10.8693 190.185 9.36932C191.276 7.86932 192.753 6.70454 194.616 5.875C196.48 5.03409 198.582 4.61364 200.923 4.61364C203.287 4.61364 205.372 5.02841 207.179 5.85795C208.997 6.6875 210.429 7.82955 211.474 9.28409C212.52 10.7273 213.065 12.3864 213.111 14.2614H208.031Z" fill="#49AA26"/>
</svg>
